<svg width="30" height="30" viewBox="70 0 30 30" fill="none" xmlns="http://www.w3.org/2000/svg">
<rect x="70" width="30" height="30" rx="6" fill="#F5F5F5"/>
<path fill-rule="evenodd" clip-rule="evenodd" d="M86.43 16.9675C87.7915 16.4052 88.7495 15.0645 88.7495 13.5C88.7495 11.4289 87.0706 9.75 84.9995 9.75C82.9284 9.75 81.2495 11.4289 81.2495 13.5C81.2495 15.0645 82.2076 16.4052 83.569 16.9675C82.1747 17.1998 80.8921 17.7657 79.8081 18.5802L81.1897 20.419C82.2509 19.6217 83.5685 19.1496 84.9996 19.1496C86.4307 19.1496 87.7483 19.6217 88.8096 20.419L90.1911 18.5802C89.107 17.7657 87.8244 17.1997 86.43 16.9675Z" fill="black"/>
</svg>
